<mxfile host="Electron" modified="2024-07-20T19:32:45.311Z" agent="Mozilla/5.0 (Windows NT 10.0; Win64; x64) AppleWebKit/537.36 (KHTML, like Gecko) draw.io/24.4.8 Chrome/124.0.6367.207 Electron/30.0.6 Safari/537.36" etag="g3XFSuFfqgdxUpKJQzqF" version="24.4.8" type="device">
  <diagram name="Page-1" id="KZN-zyBD-0XipZeYQRDT">
    <mxGraphModel dx="564" dy="326" grid="1" gridSize="10" guides="1" tooltips="1" connect="1" arrows="1" fold="1" page="1" pageScale="1" pageWidth="500" pageHeight="200" math="0" shadow="0">
      <root>
        <mxCell id="0" />
        <mxCell id="1" parent="0" />
        <mxCell id="kFSMSDOhSoSZf0vL2oAS-1" value="" style="group" vertex="1" connectable="0" parent="1">
          <mxGeometry x="9" y="78" width="482.6" height="44.45" as="geometry" />
        </mxCell>
        <mxCell id="PZP4gdgeWaH-fIwLRfgN-368" value="" style="rounded=0;whiteSpace=wrap;html=1;fillColor=#111111;strokeColor=#222222;glass=0;aspect=fixed;container=0;" parent="kFSMSDOhSoSZf0vL2oAS-1" vertex="1">
          <mxGeometry width="482.6" height="44.45" as="geometry" />
        </mxCell>
        <mxCell id="PZP4gdgeWaH-fIwLRfgN-369" value="" style="rounded=0;whiteSpace=wrap;html=1;fillColor=#111111;strokeColor=#222222;glass=0;aspect=fixed;container=0;" parent="kFSMSDOhSoSZf0vL2oAS-1" vertex="1">
          <mxGeometry x="18" width="446.6" height="44.45" as="geometry" />
        </mxCell>
        <mxCell id="8-Y4Epgb5bJB_0jupaL6-1" value="" style="group;strokeColor=#222222;rounded=1;arcSize=50;container=0;" parent="kFSMSDOhSoSZf0vL2oAS-1" vertex="1" connectable="0">
          <mxGeometry x="468.6" y="3" width="10" height="6" as="geometry" />
        </mxCell>
        <mxCell id="8-Y4Epgb5bJB_0jupaL6-2" value="" style="group;rounded=1;strokeColor=#222222;arcSize=50;container=0;" parent="kFSMSDOhSoSZf0vL2oAS-1" vertex="1" connectable="0">
          <mxGeometry x="468.6" y="35.45" width="10" height="6" as="geometry" />
        </mxCell>
        <mxCell id="8-Y4Epgb5bJB_0jupaL6-3" value="" style="group;rounded=1;strokeColor=#222222;arcSize=50;container=0;" parent="kFSMSDOhSoSZf0vL2oAS-1" vertex="1" connectable="0">
          <mxGeometry x="4" y="3" width="10" height="6" as="geometry" />
        </mxCell>
        <mxCell id="8-Y4Epgb5bJB_0jupaL6-4" value="" style="group;strokeColor=#222222;rounded=1;arcSize=50;container=0;" parent="kFSMSDOhSoSZf0vL2oAS-1" vertex="1" connectable="0">
          <mxGeometry x="4" y="35.45" width="10" height="6" as="geometry" />
        </mxCell>
        <mxCell id="dPUykWXNvH8D_2w4ptwh-170" value="2" style="text;html=1;align=center;verticalAlign=middle;whiteSpace=wrap;rounded=0;fontSize=3;container=0;" parent="kFSMSDOhSoSZf0vL2oAS-1" vertex="1">
          <mxGeometry x="293.3" y="37.22999999999999" width="12" height="5" as="geometry" />
        </mxCell>
        <mxCell id="dPUykWXNvH8D_2w4ptwh-171" value="4" style="text;html=1;align=center;verticalAlign=middle;whiteSpace=wrap;rounded=0;fontSize=3;container=0;" parent="kFSMSDOhSoSZf0vL2oAS-1" vertex="1">
          <mxGeometry x="306.3" y="37.22999999999999" width="12" height="5" as="geometry" />
        </mxCell>
        <mxCell id="dPUykWXNvH8D_2w4ptwh-172" value="6" style="text;html=1;align=center;verticalAlign=middle;whiteSpace=wrap;rounded=0;fontSize=3;container=0;" parent="kFSMSDOhSoSZf0vL2oAS-1" vertex="1">
          <mxGeometry x="319.3" y="37.22999999999999" width="12" height="5" as="geometry" />
        </mxCell>
        <mxCell id="dPUykWXNvH8D_2w4ptwh-173" value="8" style="text;html=1;align=center;verticalAlign=middle;whiteSpace=wrap;rounded=0;fontSize=3;container=0;" parent="kFSMSDOhSoSZf0vL2oAS-1" vertex="1">
          <mxGeometry x="332.3" y="37.22999999999999" width="12" height="5" as="geometry" />
        </mxCell>
        <mxCell id="dPUykWXNvH8D_2w4ptwh-174" value="10" style="text;html=1;align=center;verticalAlign=middle;whiteSpace=wrap;rounded=0;fontSize=3;container=0;" parent="kFSMSDOhSoSZf0vL2oAS-1" vertex="1">
          <mxGeometry x="345.3" y="37.22999999999999" width="12" height="5" as="geometry" />
        </mxCell>
        <mxCell id="dPUykWXNvH8D_2w4ptwh-175" value="12" style="text;html=1;align=center;verticalAlign=middle;whiteSpace=wrap;rounded=0;fontSize=3;container=0;" parent="kFSMSDOhSoSZf0vL2oAS-1" vertex="1">
          <mxGeometry x="358.3" y="37.22999999999999" width="12" height="5" as="geometry" />
        </mxCell>
        <mxCell id="dPUykWXNvH8D_2w4ptwh-176" value="1" style="text;html=1;align=center;verticalAlign=middle;whiteSpace=wrap;rounded=0;fontSize=3;container=0;" parent="kFSMSDOhSoSZf0vL2oAS-1" vertex="1">
          <mxGeometry x="293.3" y="2.230000000000004" width="12" height="5" as="geometry" />
        </mxCell>
        <mxCell id="dPUykWXNvH8D_2w4ptwh-177" value="3" style="text;html=1;align=center;verticalAlign=middle;whiteSpace=wrap;rounded=0;fontSize=3;container=0;" parent="kFSMSDOhSoSZf0vL2oAS-1" vertex="1">
          <mxGeometry x="306.3" y="2.230000000000004" width="12" height="5" as="geometry" />
        </mxCell>
        <mxCell id="dPUykWXNvH8D_2w4ptwh-178" value="5" style="text;html=1;align=center;verticalAlign=middle;whiteSpace=wrap;rounded=0;fontSize=3;container=0;" parent="kFSMSDOhSoSZf0vL2oAS-1" vertex="1">
          <mxGeometry x="319.3" y="2.230000000000004" width="12" height="5" as="geometry" />
        </mxCell>
        <mxCell id="dPUykWXNvH8D_2w4ptwh-179" value="7" style="text;html=1;align=center;verticalAlign=middle;whiteSpace=wrap;rounded=0;fontSize=3;container=0;" parent="kFSMSDOhSoSZf0vL2oAS-1" vertex="1">
          <mxGeometry x="332.3" y="2.230000000000004" width="12" height="5" as="geometry" />
        </mxCell>
        <mxCell id="dPUykWXNvH8D_2w4ptwh-180" value="9" style="text;html=1;align=center;verticalAlign=middle;whiteSpace=wrap;rounded=0;fontSize=3;container=0;" parent="kFSMSDOhSoSZf0vL2oAS-1" vertex="1">
          <mxGeometry x="345.3" y="2.230000000000004" width="12" height="5" as="geometry" />
        </mxCell>
        <mxCell id="dPUykWXNvH8D_2w4ptwh-181" value="11" style="text;html=1;align=center;verticalAlign=middle;whiteSpace=wrap;rounded=0;fontSize=3;container=0;" parent="kFSMSDOhSoSZf0vL2oAS-1" vertex="1">
          <mxGeometry x="358.3" y="2.230000000000004" width="12" height="5" as="geometry" />
        </mxCell>
        <mxCell id="dPUykWXNvH8D_2w4ptwh-1" value="" style="rounded=0;whiteSpace=wrap;html=1;strokeColor=#000000;fillColor=#BFBFBF;fontColor=#ffffff;strokeWidth=0.1;fontSize=3;fontFamily=Teko Light;align=center;verticalAlign=middle;container=0;" parent="kFSMSDOhSoSZf0vL2oAS-1" vertex="1">
          <mxGeometry x="346.3" y="8.230000000000004" width="55" height="28" as="geometry" />
        </mxCell>
        <mxCell id="dPUykWXNvH8D_2w4ptwh-82" value="" style="rounded=0;whiteSpace=wrap;html=1;strokeColor=none;fillColor=#222222;fontColor=#ffffff;strokeWidth=0.1;fontSize=3;fontFamily=Teko Light;container=0;rotation=-180;" parent="kFSMSDOhSoSZf0vL2oAS-1" vertex="1">
          <mxGeometry x="374.3" y="30.22999999999999" width="12" height="5" as="geometry" />
        </mxCell>
        <mxCell id="dPUykWXNvH8D_2w4ptwh-83" value="" style="rounded=0;whiteSpace=wrap;html=1;strokeColor=none;fillColor=#000000;fontColor=#ffffff;strokeWidth=0.1;fontSize=3;fontFamily=Teko Light;container=0;rotation=-180;" parent="kFSMSDOhSoSZf0vL2oAS-1" vertex="1">
          <mxGeometry x="374.3" y="24.22999999999999" width="12" height="7" as="geometry" />
        </mxCell>
        <mxCell id="dPUykWXNvH8D_2w4ptwh-84" value="" style="rounded=0;whiteSpace=wrap;html=1;strokeColor=none;fillColor=#000000;fontColor=#ffffff;strokeWidth=0.1;fontSize=3;fontFamily=Teko Light;container=0;rotation=-180;" parent="kFSMSDOhSoSZf0vL2oAS-1" vertex="1">
          <mxGeometry x="377.8" y="30.22999999999999" width="5" height="4" as="geometry" />
        </mxCell>
        <mxCell id="dPUykWXNvH8D_2w4ptwh-85" value="" style="rounded=0;whiteSpace=wrap;html=1;strokeColor=none;fillColor=#60a917;fontColor=#ffffff;strokeWidth=0.1;fontSize=3;fontFamily=Teko Light;container=0;rotation=-180;" parent="kFSMSDOhSoSZf0vL2oAS-1" vertex="1">
          <mxGeometry x="383.3" y="32.22999999999999" width="3" height="2" as="geometry" />
        </mxCell>
        <mxCell id="dPUykWXNvH8D_2w4ptwh-86" value="" style="rounded=0;whiteSpace=wrap;html=1;strokeColor=none;fillColor=#e3c800;fontColor=#000000;strokeWidth=0.1;fontSize=3;fontFamily=Teko Light;container=0;rotation=-180;" parent="kFSMSDOhSoSZf0vL2oAS-1" vertex="1">
          <mxGeometry x="374.3" y="32.22999999999999" width="3" height="2" as="geometry" />
        </mxCell>
        <mxCell id="dPUykWXNvH8D_2w4ptwh-37" value="" style="rounded=0;whiteSpace=wrap;html=1;strokeColor=none;fillColor=#222222;fontColor=#ffffff;strokeWidth=0.1;fontSize=3;fontFamily=Teko Light;container=0;" parent="kFSMSDOhSoSZf0vL2oAS-1" vertex="1">
          <mxGeometry x="348.29857142857145" y="9.227576744186067" width="12" height="5" as="geometry" />
        </mxCell>
        <mxCell id="dPUykWXNvH8D_2w4ptwh-10" value="" style="rounded=0;whiteSpace=wrap;html=1;strokeColor=none;fillColor=#000000;fontColor=#ffffff;strokeWidth=0.1;fontSize=3;fontFamily=Teko Light;container=0;" parent="kFSMSDOhSoSZf0vL2oAS-1" vertex="1">
          <mxGeometry x="348.2971428571429" y="13.231074995060638" width="12" height="7" as="geometry" />
        </mxCell>
        <mxCell id="dPUykWXNvH8D_2w4ptwh-11" value="" style="rounded=0;whiteSpace=wrap;html=1;strokeColor=none;fillColor=#000000;fontColor=#ffffff;strokeWidth=0.1;fontSize=3;fontFamily=Teko Light;container=0;" parent="kFSMSDOhSoSZf0vL2oAS-1" vertex="1">
          <mxGeometry x="351.8" y="10.230000000000004" width="5" height="4" as="geometry" />
        </mxCell>
        <mxCell id="dPUykWXNvH8D_2w4ptwh-18" value="" style="rounded=0;whiteSpace=wrap;html=1;strokeColor=none;fillColor=#60a917;fontColor=#ffffff;strokeWidth=0.1;fontSize=3;fontFamily=Teko Light;container=0;" parent="kFSMSDOhSoSZf0vL2oAS-1" vertex="1">
          <mxGeometry x="348.3" y="10.730000000000004" width="3" height="2" as="geometry" />
        </mxCell>
        <mxCell id="dPUykWXNvH8D_2w4ptwh-19" value="" style="rounded=0;whiteSpace=wrap;html=1;strokeColor=none;fillColor=#e3c800;fontColor=#000000;strokeWidth=0.1;fontSize=3;fontFamily=Teko Light;container=0;" parent="kFSMSDOhSoSZf0vL2oAS-1" vertex="1">
          <mxGeometry x="357.3" y="10.730000000000004" width="3" height="2" as="geometry" />
        </mxCell>
        <mxCell id="dPUykWXNvH8D_2w4ptwh-40" value="" style="rounded=0;whiteSpace=wrap;html=1;strokeColor=none;fillColor=#222222;fontColor=#ffffff;strokeWidth=0.1;fontSize=3;fontFamily=Teko Light;container=0;" parent="kFSMSDOhSoSZf0vL2oAS-1" vertex="1">
          <mxGeometry x="361.29857142857145" y="9.227576744186067" width="12" height="5" as="geometry" />
        </mxCell>
        <mxCell id="dPUykWXNvH8D_2w4ptwh-41" value="" style="rounded=0;whiteSpace=wrap;html=1;strokeColor=none;fillColor=#000000;fontColor=#ffffff;strokeWidth=0.1;fontSize=3;fontFamily=Teko Light;container=0;" parent="kFSMSDOhSoSZf0vL2oAS-1" vertex="1">
          <mxGeometry x="361.2971428571429" y="13.231074995060638" width="12" height="7" as="geometry" />
        </mxCell>
        <mxCell id="dPUykWXNvH8D_2w4ptwh-42" value="" style="rounded=0;whiteSpace=wrap;html=1;strokeColor=none;fillColor=#000000;fontColor=#ffffff;strokeWidth=0.1;fontSize=3;fontFamily=Teko Light;container=0;" parent="kFSMSDOhSoSZf0vL2oAS-1" vertex="1">
          <mxGeometry x="364.8" y="10.230000000000004" width="5" height="4" as="geometry" />
        </mxCell>
        <mxCell id="dPUykWXNvH8D_2w4ptwh-43" value="" style="rounded=0;whiteSpace=wrap;html=1;strokeColor=none;fillColor=#60a917;fontColor=#ffffff;strokeWidth=0.1;fontSize=3;fontFamily=Teko Light;container=0;" parent="kFSMSDOhSoSZf0vL2oAS-1" vertex="1">
          <mxGeometry x="361.3" y="10.730000000000004" width="3" height="2" as="geometry" />
        </mxCell>
        <mxCell id="dPUykWXNvH8D_2w4ptwh-44" value="" style="rounded=0;whiteSpace=wrap;html=1;strokeColor=none;fillColor=#e3c800;fontColor=#000000;strokeWidth=0.1;fontSize=3;fontFamily=Teko Light;container=0;" parent="kFSMSDOhSoSZf0vL2oAS-1" vertex="1">
          <mxGeometry x="370.3" y="10.730000000000004" width="3" height="2" as="geometry" />
        </mxCell>
        <mxCell id="dPUykWXNvH8D_2w4ptwh-46" value="" style="rounded=0;whiteSpace=wrap;html=1;strokeColor=none;fillColor=#222222;fontColor=#ffffff;strokeWidth=0.1;fontSize=3;fontFamily=Teko Light;container=0;" parent="kFSMSDOhSoSZf0vL2oAS-1" vertex="1">
          <mxGeometry x="374.29857142857145" y="9.227576744186067" width="12" height="5" as="geometry" />
        </mxCell>
        <mxCell id="dPUykWXNvH8D_2w4ptwh-47" value="" style="rounded=0;whiteSpace=wrap;html=1;strokeColor=none;fillColor=#000000;fontColor=#ffffff;strokeWidth=0.1;fontSize=3;fontFamily=Teko Light;container=0;" parent="kFSMSDOhSoSZf0vL2oAS-1" vertex="1">
          <mxGeometry x="374.2971428571429" y="13.231074995060638" width="12" height="7" as="geometry" />
        </mxCell>
        <mxCell id="dPUykWXNvH8D_2w4ptwh-48" value="" style="rounded=0;whiteSpace=wrap;html=1;strokeColor=none;fillColor=#000000;fontColor=#ffffff;strokeWidth=0.1;fontSize=3;fontFamily=Teko Light;container=0;" parent="kFSMSDOhSoSZf0vL2oAS-1" vertex="1">
          <mxGeometry x="377.8" y="10.230000000000004" width="5" height="4" as="geometry" />
        </mxCell>
        <mxCell id="dPUykWXNvH8D_2w4ptwh-49" value="" style="rounded=0;whiteSpace=wrap;html=1;strokeColor=none;fillColor=#60a917;fontColor=#ffffff;strokeWidth=0.1;fontSize=3;fontFamily=Teko Light;container=0;" parent="kFSMSDOhSoSZf0vL2oAS-1" vertex="1">
          <mxGeometry x="374.3" y="10.730000000000004" width="3" height="2" as="geometry" />
        </mxCell>
        <mxCell id="dPUykWXNvH8D_2w4ptwh-50" value="" style="rounded=0;whiteSpace=wrap;html=1;strokeColor=none;fillColor=#e3c800;fontColor=#000000;strokeWidth=0.1;fontSize=3;fontFamily=Teko Light;container=0;" parent="kFSMSDOhSoSZf0vL2oAS-1" vertex="1">
          <mxGeometry x="383.3" y="10.730000000000004" width="3" height="2" as="geometry" />
        </mxCell>
        <mxCell id="dPUykWXNvH8D_2w4ptwh-52" value="" style="rounded=0;whiteSpace=wrap;html=1;strokeColor=none;fillColor=#222222;fontColor=#ffffff;strokeWidth=0.1;fontSize=3;fontFamily=Teko Light;container=0;" parent="kFSMSDOhSoSZf0vL2oAS-1" vertex="1">
          <mxGeometry x="387.29857142857145" y="9.227576744186067" width="12" height="5" as="geometry" />
        </mxCell>
        <mxCell id="dPUykWXNvH8D_2w4ptwh-53" value="" style="rounded=0;whiteSpace=wrap;html=1;strokeColor=none;fillColor=#000000;fontColor=#ffffff;strokeWidth=0.1;fontSize=3;fontFamily=Teko Light;container=0;" parent="kFSMSDOhSoSZf0vL2oAS-1" vertex="1">
          <mxGeometry x="387.2971428571429" y="13.231074995060638" width="12" height="7" as="geometry" />
        </mxCell>
        <mxCell id="dPUykWXNvH8D_2w4ptwh-54" value="" style="rounded=0;whiteSpace=wrap;html=1;strokeColor=none;fillColor=#000000;fontColor=#ffffff;strokeWidth=0.1;fontSize=3;fontFamily=Teko Light;container=0;" parent="kFSMSDOhSoSZf0vL2oAS-1" vertex="1">
          <mxGeometry x="390.8" y="10.230000000000004" width="5" height="4" as="geometry" />
        </mxCell>
        <mxCell id="dPUykWXNvH8D_2w4ptwh-55" value="" style="rounded=0;whiteSpace=wrap;html=1;strokeColor=none;fillColor=#60a917;fontColor=#ffffff;strokeWidth=0.1;fontSize=3;fontFamily=Teko Light;container=0;" parent="kFSMSDOhSoSZf0vL2oAS-1" vertex="1">
          <mxGeometry x="387.3" y="10.730000000000004" width="3" height="2" as="geometry" />
        </mxCell>
        <mxCell id="dPUykWXNvH8D_2w4ptwh-56" value="" style="rounded=0;whiteSpace=wrap;html=1;strokeColor=none;fillColor=#e3c800;fontColor=#000000;strokeWidth=0.1;fontSize=3;fontFamily=Teko Light;container=0;" parent="kFSMSDOhSoSZf0vL2oAS-1" vertex="1">
          <mxGeometry x="396.3" y="10.730000000000004" width="3" height="2" as="geometry" />
        </mxCell>
        <mxCell id="dPUykWXNvH8D_2w4ptwh-70" value="" style="rounded=0;whiteSpace=wrap;html=1;strokeColor=none;fillColor=#222222;fontColor=#ffffff;strokeWidth=0.1;fontSize=3;fontFamily=Teko Light;container=0;rotation=-180;" parent="kFSMSDOhSoSZf0vL2oAS-1" vertex="1">
          <mxGeometry x="348.2971428571429" y="30.227576744186052" width="12" height="5" as="geometry" />
        </mxCell>
        <mxCell id="dPUykWXNvH8D_2w4ptwh-71" value="" style="rounded=0;whiteSpace=wrap;html=1;strokeColor=none;fillColor=#000000;fontColor=#ffffff;strokeWidth=0.1;fontSize=3;fontFamily=Teko Light;container=0;rotation=-180;" parent="kFSMSDOhSoSZf0vL2oAS-1" vertex="1">
          <mxGeometry x="348.2971428571429" y="24.227576744186052" width="12" height="7" as="geometry" />
        </mxCell>
        <mxCell id="dPUykWXNvH8D_2w4ptwh-72" value="" style="rounded=0;whiteSpace=wrap;html=1;strokeColor=none;fillColor=#000000;fontColor=#ffffff;strokeWidth=0.1;fontSize=3;fontFamily=Teko Light;container=0;rotation=-180;" parent="kFSMSDOhSoSZf0vL2oAS-1" vertex="1">
          <mxGeometry x="351.7971428571429" y="30.227576744186052" width="5" height="4" as="geometry" />
        </mxCell>
        <mxCell id="dPUykWXNvH8D_2w4ptwh-73" value="" style="rounded=0;whiteSpace=wrap;html=1;strokeColor=none;fillColor=#60a917;fontColor=#ffffff;strokeWidth=0.1;fontSize=3;fontFamily=Teko Light;container=0;rotation=-180;" parent="kFSMSDOhSoSZf0vL2oAS-1" vertex="1">
          <mxGeometry x="357.2971428571429" y="32.22757674418605" width="3" height="2" as="geometry" />
        </mxCell>
        <mxCell id="dPUykWXNvH8D_2w4ptwh-74" value="" style="rounded=0;whiteSpace=wrap;html=1;strokeColor=none;fillColor=#e3c800;fontColor=#000000;strokeWidth=0.1;fontSize=3;fontFamily=Teko Light;container=0;rotation=-180;" parent="kFSMSDOhSoSZf0vL2oAS-1" vertex="1">
          <mxGeometry x="348.2971428571429" y="32.22757674418605" width="3" height="2" as="geometry" />
        </mxCell>
        <mxCell id="dPUykWXNvH8D_2w4ptwh-76" value="" style="rounded=0;whiteSpace=wrap;html=1;strokeColor=none;fillColor=#222222;fontColor=#ffffff;strokeWidth=0.1;fontSize=3;fontFamily=Teko Light;container=0;rotation=-180;" parent="kFSMSDOhSoSZf0vL2oAS-1" vertex="1">
          <mxGeometry x="361.3" y="30.22999999999999" width="12" height="5" as="geometry" />
        </mxCell>
        <mxCell id="dPUykWXNvH8D_2w4ptwh-77" value="" style="rounded=0;whiteSpace=wrap;html=1;strokeColor=none;fillColor=#000000;fontColor=#ffffff;strokeWidth=0.1;fontSize=3;fontFamily=Teko Light;container=0;rotation=-180;" parent="kFSMSDOhSoSZf0vL2oAS-1" vertex="1">
          <mxGeometry x="361.3" y="24.22999999999999" width="12" height="7" as="geometry" />
        </mxCell>
        <mxCell id="dPUykWXNvH8D_2w4ptwh-78" value="" style="rounded=0;whiteSpace=wrap;html=1;strokeColor=none;fillColor=#000000;fontColor=#ffffff;strokeWidth=0.1;fontSize=3;fontFamily=Teko Light;container=0;rotation=-180;" parent="kFSMSDOhSoSZf0vL2oAS-1" vertex="1">
          <mxGeometry x="364.8" y="30.22999999999999" width="5" height="4" as="geometry" />
        </mxCell>
        <mxCell id="dPUykWXNvH8D_2w4ptwh-79" value="" style="rounded=0;whiteSpace=wrap;html=1;strokeColor=none;fillColor=#60a917;fontColor=#ffffff;strokeWidth=0.1;fontSize=3;fontFamily=Teko Light;container=0;rotation=-180;" parent="kFSMSDOhSoSZf0vL2oAS-1" vertex="1">
          <mxGeometry x="370.3" y="32.22999999999999" width="3" height="2" as="geometry" />
        </mxCell>
        <mxCell id="dPUykWXNvH8D_2w4ptwh-80" value="" style="rounded=0;whiteSpace=wrap;html=1;strokeColor=none;fillColor=#e3c800;fontColor=#000000;strokeWidth=0.1;fontSize=3;fontFamily=Teko Light;container=0;rotation=-180;" parent="kFSMSDOhSoSZf0vL2oAS-1" vertex="1">
          <mxGeometry x="361.3" y="32.22999999999999" width="3" height="2" as="geometry" />
        </mxCell>
        <mxCell id="dPUykWXNvH8D_2w4ptwh-88" value="" style="rounded=0;whiteSpace=wrap;html=1;strokeColor=none;fillColor=#222222;fontColor=#ffffff;strokeWidth=0.1;fontSize=3;fontFamily=Teko Light;container=0;rotation=-180;" parent="kFSMSDOhSoSZf0vL2oAS-1" vertex="1">
          <mxGeometry x="387.3" y="30.22999999999999" width="12" height="5" as="geometry" />
        </mxCell>
        <mxCell id="dPUykWXNvH8D_2w4ptwh-89" value="" style="rounded=0;whiteSpace=wrap;html=1;strokeColor=none;fillColor=#000000;fontColor=#ffffff;strokeWidth=0.1;fontSize=3;fontFamily=Teko Light;container=0;rotation=-180;" parent="kFSMSDOhSoSZf0vL2oAS-1" vertex="1">
          <mxGeometry x="387.3" y="24.22999999999999" width="12" height="7" as="geometry" />
        </mxCell>
        <mxCell id="dPUykWXNvH8D_2w4ptwh-90" value="" style="rounded=0;whiteSpace=wrap;html=1;strokeColor=none;fillColor=#000000;fontColor=#ffffff;strokeWidth=0.1;fontSize=3;fontFamily=Teko Light;container=0;rotation=-180;" parent="kFSMSDOhSoSZf0vL2oAS-1" vertex="1">
          <mxGeometry x="390.8" y="30.22999999999999" width="5" height="4" as="geometry" />
        </mxCell>
        <mxCell id="dPUykWXNvH8D_2w4ptwh-91" value="" style="rounded=0;whiteSpace=wrap;html=1;strokeColor=none;fillColor=#60a917;fontColor=#ffffff;strokeWidth=0.1;fontSize=3;fontFamily=Teko Light;container=0;rotation=-180;" parent="kFSMSDOhSoSZf0vL2oAS-1" vertex="1">
          <mxGeometry x="396.3" y="32.22999999999999" width="3" height="2" as="geometry" />
        </mxCell>
        <mxCell id="dPUykWXNvH8D_2w4ptwh-92" value="" style="rounded=0;whiteSpace=wrap;html=1;strokeColor=none;fillColor=#e3c800;fontColor=#000000;strokeWidth=0.1;fontSize=3;fontFamily=Teko Light;container=0;rotation=-180;" parent="kFSMSDOhSoSZf0vL2oAS-1" vertex="1">
          <mxGeometry x="387.3" y="32.22999999999999" width="3" height="2" as="geometry" />
        </mxCell>
        <mxCell id="dPUykWXNvH8D_2w4ptwh-244" value="14" style="text;html=1;align=center;verticalAlign=middle;whiteSpace=wrap;rounded=0;fontSize=3;container=0;" parent="kFSMSDOhSoSZf0vL2oAS-1" vertex="1">
          <mxGeometry x="374.3" y="37.22999999999999" width="12" height="5" as="geometry" />
        </mxCell>
        <mxCell id="dPUykWXNvH8D_2w4ptwh-245" value="16" style="text;html=1;align=center;verticalAlign=middle;whiteSpace=wrap;rounded=0;fontSize=3;container=0;" parent="kFSMSDOhSoSZf0vL2oAS-1" vertex="1">
          <mxGeometry x="387.3" y="37.22999999999999" width="12" height="5" as="geometry" />
        </mxCell>
        <mxCell id="dPUykWXNvH8D_2w4ptwh-250" value="13" style="text;html=1;align=center;verticalAlign=middle;whiteSpace=wrap;rounded=0;fontSize=3;container=0;" parent="kFSMSDOhSoSZf0vL2oAS-1" vertex="1">
          <mxGeometry x="374.3" y="2.2299999999999898" width="12" height="5" as="geometry" />
        </mxCell>
        <mxCell id="dPUykWXNvH8D_2w4ptwh-251" value="15" style="text;html=1;align=center;verticalAlign=middle;whiteSpace=wrap;rounded=0;fontSize=3;container=0;" parent="kFSMSDOhSoSZf0vL2oAS-1" vertex="1">
          <mxGeometry x="387.3" y="2.2299999999999898" width="12" height="5" as="geometry" />
        </mxCell>
        <mxCell id="dPUykWXNvH8D_2w4ptwh-304" value="SFP 2" style="text;html=1;align=center;verticalAlign=middle;whiteSpace=wrap;rounded=0;fontSize=3;container=0;" parent="kFSMSDOhSoSZf0vL2oAS-1" vertex="1">
          <mxGeometry x="428.8" y="37.22999999999999" width="12" height="5" as="geometry" />
        </mxCell>
        <mxCell id="dPUykWXNvH8D_2w4ptwh-305" value="SFP 1" style="text;html=1;align=center;verticalAlign=middle;whiteSpace=wrap;rounded=0;fontSize=3;container=0;" parent="kFSMSDOhSoSZf0vL2oAS-1" vertex="1">
          <mxGeometry x="428.8" y="2.2299999999999898" width="12" height="5" as="geometry" />
        </mxCell>
        <mxCell id="dPUykWXNvH8D_2w4ptwh-306" value="" style="endArrow=none;html=1;rounded=0;strokeWidth=0.5;" parent="kFSMSDOhSoSZf0vL2oAS-1" edge="1">
          <mxGeometry width="50" height="50" relative="1" as="geometry">
            <mxPoint x="404.3" y="11.700000000000003" as="sourcePoint" />
            <mxPoint x="407.3" y="11.700000000000003" as="targetPoint" />
          </mxGeometry>
        </mxCell>
        <mxCell id="dPUykWXNvH8D_2w4ptwh-307" value="" style="rounded=0;whiteSpace=wrap;html=1;strokeWidth=0.2;fillColor=none;container=0;" parent="kFSMSDOhSoSZf0vL2oAS-1" vertex="1">
          <mxGeometry x="410.3" y="18" width="4" height="2" as="geometry" />
        </mxCell>
        <mxCell id="dPUykWXNvH8D_2w4ptwh-308" value="" style="rounded=0;whiteSpace=wrap;html=1;strokeWidth=0.2;fillColor=#E3C800;container=0;" parent="kFSMSDOhSoSZf0vL2oAS-1" vertex="1">
          <mxGeometry x="410.3" y="21" width="4" height="2" as="geometry" />
        </mxCell>
        <mxCell id="dPUykWXNvH8D_2w4ptwh-309" value="" style="rounded=0;whiteSpace=wrap;html=1;strokeWidth=0.2;fillColor=#60A917;container=0;" parent="kFSMSDOhSoSZf0vL2oAS-1" vertex="1">
          <mxGeometry x="410.3" y="24" width="4" height="2" as="geometry" />
        </mxCell>
        <mxCell id="dPUykWXNvH8D_2w4ptwh-310" value="DOWN" style="text;html=1;align=left;verticalAlign=middle;whiteSpace=wrap;rounded=0;fontSize=2;container=0;" parent="kFSMSDOhSoSZf0vL2oAS-1" vertex="1">
          <mxGeometry x="414.3" y="18" width="14" height="2" as="geometry" />
        </mxCell>
        <mxCell id="dPUykWXNvH8D_2w4ptwh-311" value="10 / 100" style="text;html=1;align=left;verticalAlign=middle;whiteSpace=wrap;rounded=0;fontSize=2;container=0;" parent="kFSMSDOhSoSZf0vL2oAS-1" vertex="1">
          <mxGeometry x="414.3" y="21" width="14" height="2" as="geometry" />
        </mxCell>
        <mxCell id="dPUykWXNvH8D_2w4ptwh-312" value="1000" style="text;html=1;align=left;verticalAlign=middle;whiteSpace=wrap;rounded=0;fontSize=2;container=0;" parent="kFSMSDOhSoSZf0vL2oAS-1" vertex="1">
          <mxGeometry x="414.3" y="24" width="14" height="2" as="geometry" />
        </mxCell>
        <mxCell id="dPUykWXNvH8D_2w4ptwh-313" value="LINK" style="text;html=1;align=center;verticalAlign=middle;whiteSpace=wrap;rounded=0;fontSize=2;container=0;" parent="kFSMSDOhSoSZf0vL2oAS-1" vertex="1">
          <mxGeometry x="409.45" y="12.230000000000004" width="5.7" height="2" as="geometry" />
        </mxCell>
        <mxCell id="dPUykWXNvH8D_2w4ptwh-318" value="" style="endArrow=none;html=1;rounded=0;strokeWidth=0.5;" parent="kFSMSDOhSoSZf0vL2oAS-1" edge="1">
          <mxGeometry width="50" height="50" relative="1" as="geometry">
            <mxPoint x="443.3" y="23.950000000000003" as="sourcePoint" />
            <mxPoint x="446.3" y="23.950000000000003" as="targetPoint" />
          </mxGeometry>
        </mxCell>
        <mxCell id="dPUykWXNvH8D_2w4ptwh-319" value="" style="triangle;whiteSpace=wrap;html=1;fillColor=#60a917;fontColor=#ffffff;strokeColor=none;rotation=90;container=0;" parent="kFSMSDOhSoSZf0vL2oAS-1" vertex="1">
          <mxGeometry x="450" y="22.5" width="2" height="3" as="geometry" />
        </mxCell>
        <mxCell id="dPUykWXNvH8D_2w4ptwh-320" value="" style="triangle;whiteSpace=wrap;html=1;fillColor=#60a917;fontColor=#ffffff;strokeColor=none;rotation=-90;container=0;" parent="kFSMSDOhSoSZf0vL2oAS-1" vertex="1">
          <mxGeometry x="447" y="22.5" width="2" height="3" as="geometry" />
        </mxCell>
        <mxCell id="dPUykWXNvH8D_2w4ptwh-321" value="" style="triangle;whiteSpace=wrap;html=1;fillColor=none;fontColor=#ffffff;strokeColor=default;rotation=90;container=0;strokeWidth=0.2;" parent="kFSMSDOhSoSZf0vL2oAS-1" vertex="1">
          <mxGeometry x="450" y="19.5" width="2" height="3" as="geometry" />
        </mxCell>
        <mxCell id="dPUykWXNvH8D_2w4ptwh-322" value="" style="triangle;whiteSpace=wrap;html=1;fillColor=none;fontColor=#ffffff;strokeColor=default;rotation=-90;container=0;strokeWidth=0.2;" parent="kFSMSDOhSoSZf0vL2oAS-1" vertex="1">
          <mxGeometry x="447" y="19.5" width="2" height="3" as="geometry" />
        </mxCell>
        <mxCell id="dPUykWXNvH8D_2w4ptwh-323" value="1G" style="text;html=1;align=left;verticalAlign=middle;whiteSpace=wrap;rounded=0;fontSize=2;container=0;" parent="kFSMSDOhSoSZf0vL2oAS-1" vertex="1">
          <mxGeometry x="452" y="23" width="10" height="2" as="geometry" />
        </mxCell>
        <mxCell id="dPUykWXNvH8D_2w4ptwh-324" value="DOWN" style="text;html=1;align=left;verticalAlign=middle;whiteSpace=wrap;rounded=0;fontSize=2;container=0;" parent="kFSMSDOhSoSZf0vL2oAS-1" vertex="1">
          <mxGeometry x="452" y="20" width="10" height="2" as="geometry" />
        </mxCell>
        <mxCell id="dPUykWXNvH8D_2w4ptwh-325" value="" style="ellipse;whiteSpace=wrap;html=1;aspect=fixed;fillColor=#000000;strokeWidth=0.1;strokeColor=#222222;container=0;" parent="kFSMSDOhSoSZf0vL2oAS-1" vertex="1">
          <mxGeometry x="448.5" y="30" width="2" height="2" as="geometry" />
        </mxCell>
        <mxCell id="dPUykWXNvH8D_2w4ptwh-328" value="RESET" style="text;html=1;align=left;verticalAlign=middle;whiteSpace=wrap;rounded=0;fontSize=2;container=0;" parent="kFSMSDOhSoSZf0vL2oAS-1" vertex="1">
          <mxGeometry x="450.5" y="30" width="10" height="2" as="geometry" />
        </mxCell>
        <mxCell id="dPUykWXNvH8D_2w4ptwh-329" value="" style="shape=image;verticalLabelPosition=bottom;labelBackgroundColor=default;verticalAlign=top;aspect=fixed;imageAspect=0;image=data:image/svg+xml,PHN2ZyB4bWxuczp4bGluaz0iaHR0cDovL3d3dy53My5vcmcvMTk5OS94bGluayIgeG1sbnM9Imh0dHA6Ly93d3cudzMub3JnLzIwMDAvc3ZnIiBzdHlsZT0iZmlsbC1ydWxlOmV2ZW5vZGQ7Y2xpcC1ydWxlOmV2ZW5vZGQ7c3Ryb2tlLWxpbmVqb2luOnJvdW5kO3N0cm9rZS1taXRlcmxpbWl0OjI7IiB4bWw6c3BhY2U9InByZXNlcnZlIiB2ZXJzaW9uPSIxLjEiIHZpZXdCb3g9IjAgMCA4MDAgODAwIiBoZWlnaHQ9IjEwMCUiIHdpZHRoPSIxMDAlIj4mI3hhOyAgICA8cGF0aCBzdHlsZT0iZmlsbDp3aGl0ZTtmaWxsLXJ1bGU6bm9uemVybzsiIGQ9Ik0xNzcuNywxMzIuOUwxMzMuNzMzLDEzMi45TDEzMy43MzMsODguOUwxNzcuNzMzLDg4LjlMMTc3LjcsMTMyLjlaTTQzMS4yLDY2Ni4yNjdDMzcxLjg2Nyw2NjMuNiAzMjYuMiw2NDguNTMzIDI5MC44NjcsNjI2Ljc2N0MzMTQuOCw3MzAuNyA0MDQuMzY3LDc4MS43NjcgNDA4LjcsNzg0LjJMNDM1LjEsNzk4Ljc2N0M2MzcuMiw3ODUuMjY3IDc1NS40NjcsNjU0LjgzMyA3NTUuNDY3LDQ4NC4yMzNMNzU1LjQ2Nyw0NDcuMjY3QzcwNy40MzMsNjAzLjkzMyA1OTUuNjMzLDY3My43IDQzMS4yLDY2Ni4yNjdNMTMzLjUzMywzMjAuMTY3TDE3Ny45MzMsMzIwLjE2N0wxNzcuOTMzLDQxOC4xNjdMMjIyLjQ2Nyw0MTguMTY3TDIyMi40NjcsMjU0LjIzM0wyNjcsMjU0LjIzM0wyNjcsNTc0LjYzM0MyNjYuOTY3LDcyNi42NjcgNDAwLDgwMCA0MDAsODAwQzE3Ni41LDgwMCA0NC41MzMsNjY0LjUgNDQuNTMzLDQ4NC4yMzNMNDQuNTMzLDEyMS42NjdMODksMTIxLjY2N0w4OSwzNjQuMTMzTDEzMy41MzMsMzY0LjEzM0wxMzMuNTMzLDMyMC4xNjdaTTg5LDQ0LjQ2N0w0NC41MzMsNDQuNDY3TDQ0LjUzMywwTDg5LDBMODksNDQuNDY3Wk0xNzcuNywyNzYuMjMzTDEzMy43LDI3Ni4yMzNMMTMzLjcsMjMyLjIzM0wxNzcuNywyMzIuMjMzTDE3Ny43LDI3Ni4yMzNaTTIyMi4xNjcsMjEwLjIzM0wxNzguMTY3LDIxMC4yMzNMMTc4LjE2NywxNjYuMjMzTDIyMi4xNjcsMTY2LjIzM0wyMjIuMTY3LDIxMC4yMzNaTTI2Ni45MzMsMTU0LjlMMjIyLjQ2NywxNTQuOUwyMjIuNDY3LDExMC45TDI2Ni45NjcsMTEwLjlMMjY2LjkzMywxNTQuOVpNMjIyLjQ2Nyw4OC40NjdMMTc3LjkzMyw4OC40NjdMMTc3LjkzMyw0NC40NjdMMjIyLjQ2Nyw0NC40NjdMMjIyLjQ2Nyw4OC40NjdaTTczOC4yMzMsNDQyTDc1NS40NjcsMzg1LjczM0w3NTUuNDY3LDAuNUM1NTMuOTY3LDAuNSA1MzMsNzcuNzMzIDUzMywxNTEuNTMzTDUzMyw1NzQuNjY3QzUzMyw1OTYuNTY3IDUzMC44NjcsNjE5LjggNTI2LjQzMyw2NDIuNTY3QzYzMy4yNjcsNjIzLjEzMyA3MDIuOTY3LDU1Ny4wNjcgNzM4LjIzMyw0NDIuMDMzTDczOC4yMzMsNDQyWiIvPiYjeGE7PC9zdmc+;container=0;" parent="kFSMSDOhSoSZf0vL2oAS-1" vertex="1">
          <mxGeometry x="37" y="29.730000000000004" width="6" height="6" as="geometry" />
        </mxCell>
        <mxCell id="dPUykWXNvH8D_2w4ptwh-330" value="" style="endArrow=none;html=1;rounded=0;strokeWidth=0.5;exitX=1;exitY=1;exitDx=0;exitDy=0;" parent="kFSMSDOhSoSZf0vL2oAS-1" edge="1">
          <mxGeometry width="50" height="50" relative="1" as="geometry">
            <mxPoint x="47" y="35.46000000000001" as="sourcePoint" />
            <mxPoint x="47" y="30.010000000000005" as="targetPoint" />
          </mxGeometry>
        </mxCell>
        <mxCell id="dPUykWXNvH8D_2w4ptwh-331" value="&lt;i style=&quot;font-size: 6px;&quot;&gt;Edge&lt;/i&gt;Switch 16" style="text;html=1;align=left;verticalAlign=middle;whiteSpace=wrap;rounded=0;fontSize=6;spacing=0;fontStyle=1;fontFamily=Helvetica;container=0;" parent="kFSMSDOhSoSZf0vL2oAS-1" vertex="1">
          <mxGeometry x="51" y="29.730000000000004" width="43" height="6" as="geometry" />
        </mxCell>
        <mxCell id="dPUykWXNvH8D_2w4ptwh-332" value="&lt;p style=&quot;line-height: 100%;&quot;&gt;150W&lt;/p&gt;" style="text;html=1;align=center;verticalAlign=middle;whiteSpace=wrap;rounded=1;fontSize=4;spacing=0;fontStyle=1;fontColor=#111111;fillColor=#f0f0f0;spacingBottom=0;container=0;" parent="kFSMSDOhSoSZf0vL2oAS-1" vertex="1">
          <mxGeometry x="94" y="30.450000000000003" width="12" height="4" as="geometry" />
        </mxCell>
        <mxCell id="PZP4gdgeWaH-fIwLRfgN-395" value="" style="rounded=0;whiteSpace=wrap;html=1;fillColor=#000000;fontColor=#ffffff;strokeColor=none;container=0;" parent="kFSMSDOhSoSZf0vL2oAS-1" vertex="1">
          <mxGeometry x="471.6" y="3" width="4" height="6" as="geometry" />
        </mxCell>
        <mxCell id="PZP4gdgeWaH-fIwLRfgN-396" value="" style="ellipse;whiteSpace=wrap;html=1;aspect=fixed;strokeColor=none;fillColor=#000000;container=0;" parent="kFSMSDOhSoSZf0vL2oAS-1" vertex="1">
          <mxGeometry x="472.6" y="3" width="6" height="6" as="geometry" />
        </mxCell>
        <mxCell id="PZP4gdgeWaH-fIwLRfgN-397" value="" style="ellipse;whiteSpace=wrap;html=1;aspect=fixed;strokeColor=none;fillColor=#000000;container=0;" parent="kFSMSDOhSoSZf0vL2oAS-1" vertex="1">
          <mxGeometry x="468.6" y="3" width="6" height="6" as="geometry" />
        </mxCell>
        <mxCell id="PZP4gdgeWaH-fIwLRfgN-391" value="" style="rounded=0;whiteSpace=wrap;html=1;fillColor=#000000;fontColor=#ffffff;strokeColor=none;container=0;" parent="kFSMSDOhSoSZf0vL2oAS-1" vertex="1">
          <mxGeometry x="471.6" y="35.45" width="4" height="6" as="geometry" />
        </mxCell>
        <mxCell id="PZP4gdgeWaH-fIwLRfgN-392" value="" style="ellipse;whiteSpace=wrap;html=1;aspect=fixed;strokeColor=none;fillColor=#000000;container=0;" parent="kFSMSDOhSoSZf0vL2oAS-1" vertex="1">
          <mxGeometry x="472.6" y="35.45" width="6" height="6" as="geometry" />
        </mxCell>
        <mxCell id="PZP4gdgeWaH-fIwLRfgN-393" value="" style="ellipse;whiteSpace=wrap;html=1;aspect=fixed;strokeColor=none;fillColor=#000000;container=0;" parent="kFSMSDOhSoSZf0vL2oAS-1" vertex="1">
          <mxGeometry x="468.6" y="35.45" width="6" height="6" as="geometry" />
        </mxCell>
        <mxCell id="PZP4gdgeWaH-fIwLRfgN-385" value="" style="rounded=0;whiteSpace=wrap;html=1;fillColor=#000000;fontColor=#ffffff;strokeColor=none;container=0;" parent="kFSMSDOhSoSZf0vL2oAS-1" vertex="1">
          <mxGeometry x="7" y="3" width="4" height="6" as="geometry" />
        </mxCell>
        <mxCell id="PZP4gdgeWaH-fIwLRfgN-386" value="" style="ellipse;whiteSpace=wrap;html=1;aspect=fixed;strokeColor=none;fillColor=#000000;container=0;" parent="kFSMSDOhSoSZf0vL2oAS-1" vertex="1">
          <mxGeometry x="8" y="3" width="6" height="6" as="geometry" />
        </mxCell>
        <mxCell id="PZP4gdgeWaH-fIwLRfgN-387" value="" style="ellipse;whiteSpace=wrap;html=1;aspect=fixed;strokeColor=none;fillColor=#000000;container=0;" parent="kFSMSDOhSoSZf0vL2oAS-1" vertex="1">
          <mxGeometry x="4" y="3" width="6" height="6" as="geometry" />
        </mxCell>
        <mxCell id="PZP4gdgeWaH-fIwLRfgN-376" value="" style="rounded=0;whiteSpace=wrap;html=1;fillColor=#000000;fontColor=#ffffff;strokeColor=none;container=0;" parent="kFSMSDOhSoSZf0vL2oAS-1" vertex="1">
          <mxGeometry x="7" y="35.45" width="4" height="6" as="geometry" />
        </mxCell>
        <mxCell id="PZP4gdgeWaH-fIwLRfgN-381" value="" style="ellipse;whiteSpace=wrap;html=1;aspect=fixed;strokeColor=none;fillColor=#000000;container=0;" parent="kFSMSDOhSoSZf0vL2oAS-1" vertex="1">
          <mxGeometry x="8" y="35.45" width="6" height="6" as="geometry" />
        </mxCell>
        <mxCell id="PZP4gdgeWaH-fIwLRfgN-382" value="" style="ellipse;whiteSpace=wrap;html=1;aspect=fixed;strokeColor=none;fillColor=#000000;container=0;" parent="kFSMSDOhSoSZf0vL2oAS-1" vertex="1">
          <mxGeometry x="4" y="35.45" width="6" height="6" as="geometry" />
        </mxCell>
        <mxCell id="dPUykWXNvH8D_2w4ptwh-108" value="" style="rounded=0;whiteSpace=wrap;html=1;strokeColor=#000000;fillColor=#BFBFBF;fontColor=#ffffff;strokeWidth=0.1;fontSize=3;fontFamily=Teko Light;align=center;verticalAlign=middle;container=0;" parent="kFSMSDOhSoSZf0vL2oAS-1" vertex="1">
          <mxGeometry x="291.3" y="8.230000000000004" width="55" height="28" as="geometry" />
        </mxCell>
        <mxCell id="dPUykWXNvH8D_2w4ptwh-109" value="" style="rounded=0;whiteSpace=wrap;html=1;strokeColor=none;fillColor=#222222;fontColor=#ffffff;strokeWidth=0.1;fontSize=3;fontFamily=Teko Light;container=0;rotation=-180;" parent="kFSMSDOhSoSZf0vL2oAS-1" vertex="1">
          <mxGeometry x="319.3" y="30.230000000000004" width="12" height="5" as="geometry" />
        </mxCell>
        <mxCell id="dPUykWXNvH8D_2w4ptwh-110" value="" style="rounded=0;whiteSpace=wrap;html=1;strokeColor=none;fillColor=#000000;fontColor=#ffffff;strokeWidth=0.1;fontSize=3;fontFamily=Teko Light;container=0;rotation=-180;" parent="kFSMSDOhSoSZf0vL2oAS-1" vertex="1">
          <mxGeometry x="319.3" y="24.230000000000004" width="12" height="7" as="geometry" />
        </mxCell>
        <mxCell id="dPUykWXNvH8D_2w4ptwh-111" value="" style="rounded=0;whiteSpace=wrap;html=1;strokeColor=none;fillColor=#000000;fontColor=#ffffff;strokeWidth=0.1;fontSize=3;fontFamily=Teko Light;container=0;rotation=-180;" parent="kFSMSDOhSoSZf0vL2oAS-1" vertex="1">
          <mxGeometry x="322.8" y="30.230000000000004" width="5" height="4" as="geometry" />
        </mxCell>
        <mxCell id="dPUykWXNvH8D_2w4ptwh-112" value="" style="rounded=0;whiteSpace=wrap;html=1;strokeColor=none;fillColor=#60a917;fontColor=#ffffff;strokeWidth=0.1;fontSize=3;fontFamily=Teko Light;container=0;rotation=-180;" parent="kFSMSDOhSoSZf0vL2oAS-1" vertex="1">
          <mxGeometry x="328.3" y="32.230000000000004" width="3" height="2" as="geometry" />
        </mxCell>
        <mxCell id="dPUykWXNvH8D_2w4ptwh-113" value="" style="rounded=0;whiteSpace=wrap;html=1;strokeColor=none;fillColor=#e3c800;fontColor=#000000;strokeWidth=0.1;fontSize=3;fontFamily=Teko Light;container=0;rotation=-180;" parent="kFSMSDOhSoSZf0vL2oAS-1" vertex="1">
          <mxGeometry x="319.3" y="32.230000000000004" width="3" height="2" as="geometry" />
        </mxCell>
        <mxCell id="dPUykWXNvH8D_2w4ptwh-114" value="" style="rounded=0;whiteSpace=wrap;html=1;strokeColor=none;fillColor=#222222;fontColor=#ffffff;strokeWidth=0.1;fontSize=3;fontFamily=Teko Light;container=0;" parent="kFSMSDOhSoSZf0vL2oAS-1" vertex="1">
          <mxGeometry x="293.29857142857145" y="9.227576744186067" width="12" height="5" as="geometry" />
        </mxCell>
        <mxCell id="dPUykWXNvH8D_2w4ptwh-115" value="" style="rounded=0;whiteSpace=wrap;html=1;strokeColor=none;fillColor=#000000;fontColor=#ffffff;strokeWidth=0.1;fontSize=3;fontFamily=Teko Light;container=0;" parent="kFSMSDOhSoSZf0vL2oAS-1" vertex="1">
          <mxGeometry x="293.2971428571429" y="13.231074995060638" width="12" height="7" as="geometry" />
        </mxCell>
        <mxCell id="dPUykWXNvH8D_2w4ptwh-116" value="" style="rounded=0;whiteSpace=wrap;html=1;strokeColor=none;fillColor=#000000;fontColor=#ffffff;strokeWidth=0.1;fontSize=3;fontFamily=Teko Light;container=0;" parent="kFSMSDOhSoSZf0vL2oAS-1" vertex="1">
          <mxGeometry x="296.8" y="10.230000000000004" width="5" height="4" as="geometry" />
        </mxCell>
        <mxCell id="dPUykWXNvH8D_2w4ptwh-117" value="" style="rounded=0;whiteSpace=wrap;html=1;strokeColor=none;fillColor=#60a917;fontColor=#ffffff;strokeWidth=0.1;fontSize=3;fontFamily=Teko Light;container=0;" parent="kFSMSDOhSoSZf0vL2oAS-1" vertex="1">
          <mxGeometry x="293.3" y="10.730000000000004" width="3" height="2" as="geometry" />
        </mxCell>
        <mxCell id="dPUykWXNvH8D_2w4ptwh-118" value="" style="rounded=0;whiteSpace=wrap;html=1;strokeColor=none;fillColor=#e3c800;fontColor=#000000;strokeWidth=0.1;fontSize=3;fontFamily=Teko Light;container=0;" parent="kFSMSDOhSoSZf0vL2oAS-1" vertex="1">
          <mxGeometry x="302.3" y="10.730000000000004" width="3" height="2" as="geometry" />
        </mxCell>
        <mxCell id="dPUykWXNvH8D_2w4ptwh-119" value="" style="rounded=0;whiteSpace=wrap;html=1;strokeColor=none;fillColor=#222222;fontColor=#ffffff;strokeWidth=0.1;fontSize=3;fontFamily=Teko Light;container=0;" parent="kFSMSDOhSoSZf0vL2oAS-1" vertex="1">
          <mxGeometry x="306.29857142857145" y="9.227576744186067" width="12" height="5" as="geometry" />
        </mxCell>
        <mxCell id="dPUykWXNvH8D_2w4ptwh-120" value="" style="rounded=0;whiteSpace=wrap;html=1;strokeColor=none;fillColor=#000000;fontColor=#ffffff;strokeWidth=0.1;fontSize=3;fontFamily=Teko Light;container=0;" parent="kFSMSDOhSoSZf0vL2oAS-1" vertex="1">
          <mxGeometry x="306.2971428571429" y="13.231074995060638" width="12" height="7" as="geometry" />
        </mxCell>
        <mxCell id="dPUykWXNvH8D_2w4ptwh-121" value="" style="rounded=0;whiteSpace=wrap;html=1;strokeColor=none;fillColor=#000000;fontColor=#ffffff;strokeWidth=0.1;fontSize=3;fontFamily=Teko Light;container=0;" parent="kFSMSDOhSoSZf0vL2oAS-1" vertex="1">
          <mxGeometry x="309.8" y="10.230000000000004" width="5" height="4" as="geometry" />
        </mxCell>
        <mxCell id="dPUykWXNvH8D_2w4ptwh-122" value="" style="rounded=0;whiteSpace=wrap;html=1;strokeColor=none;fillColor=#60a917;fontColor=#ffffff;strokeWidth=0.1;fontSize=3;fontFamily=Teko Light;container=0;" parent="kFSMSDOhSoSZf0vL2oAS-1" vertex="1">
          <mxGeometry x="306.3" y="10.730000000000004" width="3" height="2" as="geometry" />
        </mxCell>
        <mxCell id="dPUykWXNvH8D_2w4ptwh-123" value="" style="rounded=0;whiteSpace=wrap;html=1;strokeColor=none;fillColor=#e3c800;fontColor=#000000;strokeWidth=0.1;fontSize=3;fontFamily=Teko Light;container=0;" parent="kFSMSDOhSoSZf0vL2oAS-1" vertex="1">
          <mxGeometry x="315.3" y="10.730000000000004" width="3" height="2" as="geometry" />
        </mxCell>
        <mxCell id="dPUykWXNvH8D_2w4ptwh-124" value="" style="rounded=0;whiteSpace=wrap;html=1;strokeColor=none;fillColor=#222222;fontColor=#ffffff;strokeWidth=0.1;fontSize=3;fontFamily=Teko Light;container=0;" parent="kFSMSDOhSoSZf0vL2oAS-1" vertex="1">
          <mxGeometry x="319.29857142857145" y="9.227576744186067" width="12" height="5" as="geometry" />
        </mxCell>
        <mxCell id="dPUykWXNvH8D_2w4ptwh-125" value="" style="rounded=0;whiteSpace=wrap;html=1;strokeColor=none;fillColor=#000000;fontColor=#ffffff;strokeWidth=0.1;fontSize=3;fontFamily=Teko Light;container=0;" parent="kFSMSDOhSoSZf0vL2oAS-1" vertex="1">
          <mxGeometry x="319.2971428571429" y="13.231074995060638" width="12" height="7" as="geometry" />
        </mxCell>
        <mxCell id="dPUykWXNvH8D_2w4ptwh-126" value="" style="rounded=0;whiteSpace=wrap;html=1;strokeColor=none;fillColor=#000000;fontColor=#ffffff;strokeWidth=0.1;fontSize=3;fontFamily=Teko Light;container=0;" parent="kFSMSDOhSoSZf0vL2oAS-1" vertex="1">
          <mxGeometry x="322.8" y="10.230000000000004" width="5" height="4" as="geometry" />
        </mxCell>
        <mxCell id="dPUykWXNvH8D_2w4ptwh-127" value="" style="rounded=0;whiteSpace=wrap;html=1;strokeColor=none;fillColor=#60a917;fontColor=#ffffff;strokeWidth=0.1;fontSize=3;fontFamily=Teko Light;container=0;" parent="kFSMSDOhSoSZf0vL2oAS-1" vertex="1">
          <mxGeometry x="319.3" y="10.730000000000004" width="3" height="2" as="geometry" />
        </mxCell>
        <mxCell id="dPUykWXNvH8D_2w4ptwh-128" value="" style="rounded=0;whiteSpace=wrap;html=1;strokeColor=none;fillColor=#e3c800;fontColor=#000000;strokeWidth=0.1;fontSize=3;fontFamily=Teko Light;container=0;" parent="kFSMSDOhSoSZf0vL2oAS-1" vertex="1">
          <mxGeometry x="328.3" y="10.730000000000004" width="3" height="2" as="geometry" />
        </mxCell>
        <mxCell id="dPUykWXNvH8D_2w4ptwh-129" value="" style="rounded=0;whiteSpace=wrap;html=1;strokeColor=none;fillColor=#222222;fontColor=#ffffff;strokeWidth=0.1;fontSize=3;fontFamily=Teko Light;container=0;" parent="kFSMSDOhSoSZf0vL2oAS-1" vertex="1">
          <mxGeometry x="332.29857142857145" y="9.227576744186067" width="12" height="5" as="geometry" />
        </mxCell>
        <mxCell id="dPUykWXNvH8D_2w4ptwh-130" value="" style="rounded=0;whiteSpace=wrap;html=1;strokeColor=none;fillColor=#000000;fontColor=#ffffff;strokeWidth=0.1;fontSize=3;fontFamily=Teko Light;container=0;" parent="kFSMSDOhSoSZf0vL2oAS-1" vertex="1">
          <mxGeometry x="332.2971428571429" y="13.231074995060638" width="12" height="7" as="geometry" />
        </mxCell>
        <mxCell id="dPUykWXNvH8D_2w4ptwh-131" value="" style="rounded=0;whiteSpace=wrap;html=1;strokeColor=none;fillColor=#000000;fontColor=#ffffff;strokeWidth=0.1;fontSize=3;fontFamily=Teko Light;container=0;" parent="kFSMSDOhSoSZf0vL2oAS-1" vertex="1">
          <mxGeometry x="335.8" y="10.230000000000004" width="5" height="4" as="geometry" />
        </mxCell>
        <mxCell id="dPUykWXNvH8D_2w4ptwh-132" value="" style="rounded=0;whiteSpace=wrap;html=1;strokeColor=none;fillColor=#60a917;fontColor=#ffffff;strokeWidth=0.1;fontSize=3;fontFamily=Teko Light;container=0;" parent="kFSMSDOhSoSZf0vL2oAS-1" vertex="1">
          <mxGeometry x="332.3" y="10.730000000000004" width="3" height="2" as="geometry" />
        </mxCell>
        <mxCell id="dPUykWXNvH8D_2w4ptwh-133" value="" style="rounded=0;whiteSpace=wrap;html=1;strokeColor=none;fillColor=#e3c800;fontColor=#000000;strokeWidth=0.1;fontSize=3;fontFamily=Teko Light;container=0;" parent="kFSMSDOhSoSZf0vL2oAS-1" vertex="1">
          <mxGeometry x="341.3" y="10.730000000000004" width="3" height="2" as="geometry" />
        </mxCell>
        <mxCell id="dPUykWXNvH8D_2w4ptwh-144" value="" style="rounded=0;whiteSpace=wrap;html=1;strokeColor=none;fillColor=#222222;fontColor=#ffffff;strokeWidth=0.1;fontSize=3;fontFamily=Teko Light;container=0;rotation=-180;" parent="kFSMSDOhSoSZf0vL2oAS-1" vertex="1">
          <mxGeometry x="293.2971428571429" y="30.227576744186067" width="12" height="5" as="geometry" />
        </mxCell>
        <mxCell id="dPUykWXNvH8D_2w4ptwh-145" value="" style="rounded=0;whiteSpace=wrap;html=1;strokeColor=none;fillColor=#000000;fontColor=#ffffff;strokeWidth=0.1;fontSize=3;fontFamily=Teko Light;container=0;rotation=-180;" parent="kFSMSDOhSoSZf0vL2oAS-1" vertex="1">
          <mxGeometry x="293.2971428571429" y="24.227576744186067" width="12" height="7" as="geometry" />
        </mxCell>
        <mxCell id="dPUykWXNvH8D_2w4ptwh-146" value="" style="rounded=0;whiteSpace=wrap;html=1;strokeColor=none;fillColor=#000000;fontColor=#ffffff;strokeWidth=0.1;fontSize=3;fontFamily=Teko Light;container=0;rotation=-180;" parent="kFSMSDOhSoSZf0vL2oAS-1" vertex="1">
          <mxGeometry x="296.7971428571429" y="30.227576744186067" width="5" height="4" as="geometry" />
        </mxCell>
        <mxCell id="dPUykWXNvH8D_2w4ptwh-147" value="" style="rounded=0;whiteSpace=wrap;html=1;strokeColor=none;fillColor=#60a917;fontColor=#ffffff;strokeWidth=0.1;fontSize=3;fontFamily=Teko Light;container=0;rotation=-180;" parent="kFSMSDOhSoSZf0vL2oAS-1" vertex="1">
          <mxGeometry x="302.2971428571429" y="32.22757674418607" width="3" height="2" as="geometry" />
        </mxCell>
        <mxCell id="dPUykWXNvH8D_2w4ptwh-148" value="" style="rounded=0;whiteSpace=wrap;html=1;strokeColor=none;fillColor=#e3c800;fontColor=#000000;strokeWidth=0.1;fontSize=3;fontFamily=Teko Light;container=0;rotation=-180;" parent="kFSMSDOhSoSZf0vL2oAS-1" vertex="1">
          <mxGeometry x="293.2971428571429" y="32.22757674418607" width="3" height="2" as="geometry" />
        </mxCell>
        <mxCell id="dPUykWXNvH8D_2w4ptwh-149" value="" style="rounded=0;whiteSpace=wrap;html=1;strokeColor=none;fillColor=#222222;fontColor=#ffffff;strokeWidth=0.1;fontSize=3;fontFamily=Teko Light;container=0;rotation=-180;" parent="kFSMSDOhSoSZf0vL2oAS-1" vertex="1">
          <mxGeometry x="306.3" y="30.230000000000004" width="12" height="5" as="geometry" />
        </mxCell>
        <mxCell id="dPUykWXNvH8D_2w4ptwh-150" value="" style="rounded=0;whiteSpace=wrap;html=1;strokeColor=none;fillColor=#000000;fontColor=#ffffff;strokeWidth=0.1;fontSize=3;fontFamily=Teko Light;container=0;rotation=-180;" parent="kFSMSDOhSoSZf0vL2oAS-1" vertex="1">
          <mxGeometry x="306.3" y="24.230000000000004" width="12" height="7" as="geometry" />
        </mxCell>
        <mxCell id="dPUykWXNvH8D_2w4ptwh-151" value="" style="rounded=0;whiteSpace=wrap;html=1;strokeColor=none;fillColor=#000000;fontColor=#ffffff;strokeWidth=0.1;fontSize=3;fontFamily=Teko Light;container=0;rotation=-180;" parent="kFSMSDOhSoSZf0vL2oAS-1" vertex="1">
          <mxGeometry x="309.8" y="30.230000000000004" width="5" height="4" as="geometry" />
        </mxCell>
        <mxCell id="dPUykWXNvH8D_2w4ptwh-152" value="" style="rounded=0;whiteSpace=wrap;html=1;strokeColor=none;fillColor=#60a917;fontColor=#ffffff;strokeWidth=0.1;fontSize=3;fontFamily=Teko Light;container=0;rotation=-180;" parent="kFSMSDOhSoSZf0vL2oAS-1" vertex="1">
          <mxGeometry x="315.3" y="32.230000000000004" width="3" height="2" as="geometry" />
        </mxCell>
        <mxCell id="dPUykWXNvH8D_2w4ptwh-153" value="" style="rounded=0;whiteSpace=wrap;html=1;strokeColor=none;fillColor=#e3c800;fontColor=#000000;strokeWidth=0.1;fontSize=3;fontFamily=Teko Light;container=0;rotation=-180;" parent="kFSMSDOhSoSZf0vL2oAS-1" vertex="1">
          <mxGeometry x="306.3" y="32.230000000000004" width="3" height="2" as="geometry" />
        </mxCell>
        <mxCell id="dPUykWXNvH8D_2w4ptwh-154" value="" style="rounded=0;whiteSpace=wrap;html=1;strokeColor=none;fillColor=#222222;fontColor=#ffffff;strokeWidth=0.1;fontSize=3;fontFamily=Teko Light;container=0;rotation=-180;" parent="kFSMSDOhSoSZf0vL2oAS-1" vertex="1">
          <mxGeometry x="332.3" y="30.230000000000004" width="12" height="5" as="geometry" />
        </mxCell>
        <mxCell id="dPUykWXNvH8D_2w4ptwh-155" value="" style="rounded=0;whiteSpace=wrap;html=1;strokeColor=none;fillColor=#000000;fontColor=#ffffff;strokeWidth=0.1;fontSize=3;fontFamily=Teko Light;container=0;rotation=-180;" parent="kFSMSDOhSoSZf0vL2oAS-1" vertex="1">
          <mxGeometry x="332.3" y="24.230000000000004" width="12" height="7" as="geometry" />
        </mxCell>
        <mxCell id="dPUykWXNvH8D_2w4ptwh-156" value="" style="rounded=0;whiteSpace=wrap;html=1;strokeColor=none;fillColor=#000000;fontColor=#ffffff;strokeWidth=0.1;fontSize=3;fontFamily=Teko Light;container=0;rotation=-180;" parent="kFSMSDOhSoSZf0vL2oAS-1" vertex="1">
          <mxGeometry x="335.8" y="30.230000000000004" width="5" height="4" as="geometry" />
        </mxCell>
        <mxCell id="dPUykWXNvH8D_2w4ptwh-157" value="" style="rounded=0;whiteSpace=wrap;html=1;strokeColor=none;fillColor=#60a917;fontColor=#ffffff;strokeWidth=0.1;fontSize=3;fontFamily=Teko Light;container=0;rotation=-180;" parent="kFSMSDOhSoSZf0vL2oAS-1" vertex="1">
          <mxGeometry x="341.3" y="32.230000000000004" width="3" height="2" as="geometry" />
        </mxCell>
        <mxCell id="dPUykWXNvH8D_2w4ptwh-158" value="" style="rounded=0;whiteSpace=wrap;html=1;strokeColor=none;fillColor=#e3c800;fontColor=#000000;strokeWidth=0.1;fontSize=3;fontFamily=Teko Light;container=0;rotation=-180;" parent="kFSMSDOhSoSZf0vL2oAS-1" vertex="1">
          <mxGeometry x="332.3" y="32.230000000000004" width="3" height="2" as="geometry" />
        </mxCell>
        <mxCell id="dPUykWXNvH8D_2w4ptwh-184" value="" style="rounded=0;whiteSpace=wrap;html=1;strokeColor=none;fillColor=#222222;fontColor=#ffffff;strokeWidth=0.1;fontSize=3;fontFamily=Teko Light;container=0;rotation=-180;" parent="kFSMSDOhSoSZf0vL2oAS-1" vertex="1">
          <mxGeometry x="374.3" y="30.22999999999999" width="12" height="5" as="geometry" />
        </mxCell>
        <mxCell id="dPUykWXNvH8D_2w4ptwh-185" value="" style="rounded=0;whiteSpace=wrap;html=1;strokeColor=none;fillColor=#000000;fontColor=#ffffff;strokeWidth=0.1;fontSize=3;fontFamily=Teko Light;container=0;rotation=-180;" parent="kFSMSDOhSoSZf0vL2oAS-1" vertex="1">
          <mxGeometry x="374.3" y="24.22999999999999" width="12" height="7" as="geometry" />
        </mxCell>
        <mxCell id="dPUykWXNvH8D_2w4ptwh-186" value="" style="rounded=0;whiteSpace=wrap;html=1;strokeColor=none;fillColor=#000000;fontColor=#ffffff;strokeWidth=0.1;fontSize=3;fontFamily=Teko Light;container=0;rotation=-180;" parent="kFSMSDOhSoSZf0vL2oAS-1" vertex="1">
          <mxGeometry x="377.8" y="30.22999999999999" width="5" height="4" as="geometry" />
        </mxCell>
        <mxCell id="dPUykWXNvH8D_2w4ptwh-187" value="" style="rounded=0;whiteSpace=wrap;html=1;strokeColor=none;fillColor=#60a917;fontColor=#ffffff;strokeWidth=0.1;fontSize=3;fontFamily=Teko Light;container=0;rotation=-180;" parent="kFSMSDOhSoSZf0vL2oAS-1" vertex="1">
          <mxGeometry x="383.3" y="32.22999999999999" width="3" height="2" as="geometry" />
        </mxCell>
        <mxCell id="dPUykWXNvH8D_2w4ptwh-188" value="" style="rounded=0;whiteSpace=wrap;html=1;strokeColor=none;fillColor=#e3c800;fontColor=#000000;strokeWidth=0.1;fontSize=3;fontFamily=Teko Light;container=0;rotation=-180;" parent="kFSMSDOhSoSZf0vL2oAS-1" vertex="1">
          <mxGeometry x="374.3" y="32.22999999999999" width="3" height="2" as="geometry" />
        </mxCell>
        <mxCell id="dPUykWXNvH8D_2w4ptwh-189" value="" style="rounded=0;whiteSpace=wrap;html=1;strokeColor=none;fillColor=#222222;fontColor=#ffffff;strokeWidth=0.1;fontSize=3;fontFamily=Teko Light;container=0;" parent="kFSMSDOhSoSZf0vL2oAS-1" vertex="1">
          <mxGeometry x="348.29857142857145" y="9.227576744186052" width="12" height="5" as="geometry" />
        </mxCell>
        <mxCell id="dPUykWXNvH8D_2w4ptwh-190" value="" style="rounded=0;whiteSpace=wrap;html=1;strokeColor=none;fillColor=#000000;fontColor=#ffffff;strokeWidth=0.1;fontSize=3;fontFamily=Teko Light;container=0;" parent="kFSMSDOhSoSZf0vL2oAS-1" vertex="1">
          <mxGeometry x="348.2971428571429" y="13.231074995060624" width="12" height="7" as="geometry" />
        </mxCell>
        <mxCell id="dPUykWXNvH8D_2w4ptwh-191" value="" style="rounded=0;whiteSpace=wrap;html=1;strokeColor=none;fillColor=#000000;fontColor=#ffffff;strokeWidth=0.1;fontSize=3;fontFamily=Teko Light;container=0;" parent="kFSMSDOhSoSZf0vL2oAS-1" vertex="1">
          <mxGeometry x="351.8" y="10.22999999999999" width="5" height="4" as="geometry" />
        </mxCell>
        <mxCell id="dPUykWXNvH8D_2w4ptwh-192" value="" style="rounded=0;whiteSpace=wrap;html=1;strokeColor=none;fillColor=#60a917;fontColor=#ffffff;strokeWidth=0.1;fontSize=3;fontFamily=Teko Light;container=0;" parent="kFSMSDOhSoSZf0vL2oAS-1" vertex="1">
          <mxGeometry x="348.3" y="10.72999999999999" width="3" height="2" as="geometry" />
        </mxCell>
        <mxCell id="dPUykWXNvH8D_2w4ptwh-193" value="" style="rounded=0;whiteSpace=wrap;html=1;strokeColor=none;fillColor=#e3c800;fontColor=#000000;strokeWidth=0.1;fontSize=3;fontFamily=Teko Light;container=0;" parent="kFSMSDOhSoSZf0vL2oAS-1" vertex="1">
          <mxGeometry x="357.3" y="10.72999999999999" width="3" height="2" as="geometry" />
        </mxCell>
        <mxCell id="dPUykWXNvH8D_2w4ptwh-194" value="" style="rounded=0;whiteSpace=wrap;html=1;strokeColor=none;fillColor=#222222;fontColor=#ffffff;strokeWidth=0.1;fontSize=3;fontFamily=Teko Light;container=0;" parent="kFSMSDOhSoSZf0vL2oAS-1" vertex="1">
          <mxGeometry x="361.29857142857145" y="9.227576744186052" width="12" height="5" as="geometry" />
        </mxCell>
        <mxCell id="dPUykWXNvH8D_2w4ptwh-195" value="" style="rounded=0;whiteSpace=wrap;html=1;strokeColor=none;fillColor=#000000;fontColor=#ffffff;strokeWidth=0.1;fontSize=3;fontFamily=Teko Light;container=0;" parent="kFSMSDOhSoSZf0vL2oAS-1" vertex="1">
          <mxGeometry x="361.2971428571429" y="13.231074995060624" width="12" height="7" as="geometry" />
        </mxCell>
        <mxCell id="dPUykWXNvH8D_2w4ptwh-196" value="" style="rounded=0;whiteSpace=wrap;html=1;strokeColor=none;fillColor=#000000;fontColor=#ffffff;strokeWidth=0.1;fontSize=3;fontFamily=Teko Light;container=0;" parent="kFSMSDOhSoSZf0vL2oAS-1" vertex="1">
          <mxGeometry x="364.8" y="10.22999999999999" width="5" height="4" as="geometry" />
        </mxCell>
        <mxCell id="dPUykWXNvH8D_2w4ptwh-197" value="" style="rounded=0;whiteSpace=wrap;html=1;strokeColor=none;fillColor=#60a917;fontColor=#ffffff;strokeWidth=0.1;fontSize=3;fontFamily=Teko Light;container=0;" parent="kFSMSDOhSoSZf0vL2oAS-1" vertex="1">
          <mxGeometry x="361.3" y="10.72999999999999" width="3" height="2" as="geometry" />
        </mxCell>
        <mxCell id="dPUykWXNvH8D_2w4ptwh-198" value="" style="rounded=0;whiteSpace=wrap;html=1;strokeColor=none;fillColor=#e3c800;fontColor=#000000;strokeWidth=0.1;fontSize=3;fontFamily=Teko Light;container=0;" parent="kFSMSDOhSoSZf0vL2oAS-1" vertex="1">
          <mxGeometry x="370.3" y="10.72999999999999" width="3" height="2" as="geometry" />
        </mxCell>
        <mxCell id="dPUykWXNvH8D_2w4ptwh-199" value="" style="rounded=0;whiteSpace=wrap;html=1;strokeColor=none;fillColor=#222222;fontColor=#ffffff;strokeWidth=0.1;fontSize=3;fontFamily=Teko Light;container=0;" parent="kFSMSDOhSoSZf0vL2oAS-1" vertex="1">
          <mxGeometry x="374.29857142857145" y="9.227576744186052" width="12" height="5" as="geometry" />
        </mxCell>
        <mxCell id="dPUykWXNvH8D_2w4ptwh-200" value="" style="rounded=0;whiteSpace=wrap;html=1;strokeColor=none;fillColor=#000000;fontColor=#ffffff;strokeWidth=0.1;fontSize=3;fontFamily=Teko Light;container=0;" parent="kFSMSDOhSoSZf0vL2oAS-1" vertex="1">
          <mxGeometry x="374.2971428571429" y="13.231074995060624" width="12" height="7" as="geometry" />
        </mxCell>
        <mxCell id="dPUykWXNvH8D_2w4ptwh-201" value="" style="rounded=0;whiteSpace=wrap;html=1;strokeColor=none;fillColor=#000000;fontColor=#ffffff;strokeWidth=0.1;fontSize=3;fontFamily=Teko Light;container=0;" parent="kFSMSDOhSoSZf0vL2oAS-1" vertex="1">
          <mxGeometry x="377.8" y="10.22999999999999" width="5" height="4" as="geometry" />
        </mxCell>
        <mxCell id="dPUykWXNvH8D_2w4ptwh-202" value="" style="rounded=0;whiteSpace=wrap;html=1;strokeColor=none;fillColor=#60a917;fontColor=#ffffff;strokeWidth=0.1;fontSize=3;fontFamily=Teko Light;container=0;" parent="kFSMSDOhSoSZf0vL2oAS-1" vertex="1">
          <mxGeometry x="374.3" y="10.72999999999999" width="3" height="2" as="geometry" />
        </mxCell>
        <mxCell id="dPUykWXNvH8D_2w4ptwh-203" value="" style="rounded=0;whiteSpace=wrap;html=1;strokeColor=none;fillColor=#e3c800;fontColor=#000000;strokeWidth=0.1;fontSize=3;fontFamily=Teko Light;container=0;" parent="kFSMSDOhSoSZf0vL2oAS-1" vertex="1">
          <mxGeometry x="383.3" y="10.72999999999999" width="3" height="2" as="geometry" />
        </mxCell>
        <mxCell id="dPUykWXNvH8D_2w4ptwh-204" value="" style="rounded=0;whiteSpace=wrap;html=1;strokeColor=none;fillColor=#222222;fontColor=#ffffff;strokeWidth=0.1;fontSize=3;fontFamily=Teko Light;container=0;" parent="kFSMSDOhSoSZf0vL2oAS-1" vertex="1">
          <mxGeometry x="387.29857142857145" y="9.227576744186052" width="12" height="5" as="geometry" />
        </mxCell>
        <mxCell id="dPUykWXNvH8D_2w4ptwh-205" value="" style="rounded=0;whiteSpace=wrap;html=1;strokeColor=none;fillColor=#000000;fontColor=#ffffff;strokeWidth=0.1;fontSize=3;fontFamily=Teko Light;container=0;" parent="kFSMSDOhSoSZf0vL2oAS-1" vertex="1">
          <mxGeometry x="387.2971428571429" y="13.231074995060624" width="12" height="7" as="geometry" />
        </mxCell>
        <mxCell id="dPUykWXNvH8D_2w4ptwh-206" value="" style="rounded=0;whiteSpace=wrap;html=1;strokeColor=none;fillColor=#000000;fontColor=#ffffff;strokeWidth=0.1;fontSize=3;fontFamily=Teko Light;container=0;" parent="kFSMSDOhSoSZf0vL2oAS-1" vertex="1">
          <mxGeometry x="390.8" y="10.22999999999999" width="5" height="4" as="geometry" />
        </mxCell>
        <mxCell id="dPUykWXNvH8D_2w4ptwh-207" value="" style="rounded=0;whiteSpace=wrap;html=1;strokeColor=none;fillColor=#60a917;fontColor=#ffffff;strokeWidth=0.1;fontSize=3;fontFamily=Teko Light;container=0;" parent="kFSMSDOhSoSZf0vL2oAS-1" vertex="1">
          <mxGeometry x="387.3" y="10.72999999999999" width="3" height="2" as="geometry" />
        </mxCell>
        <mxCell id="dPUykWXNvH8D_2w4ptwh-208" value="" style="rounded=0;whiteSpace=wrap;html=1;strokeColor=none;fillColor=#e3c800;fontColor=#000000;strokeWidth=0.1;fontSize=3;fontFamily=Teko Light;container=0;" parent="kFSMSDOhSoSZf0vL2oAS-1" vertex="1">
          <mxGeometry x="396.3" y="10.72999999999999" width="3" height="2" as="geometry" />
        </mxCell>
        <mxCell id="dPUykWXNvH8D_2w4ptwh-219" value="" style="rounded=0;whiteSpace=wrap;html=1;strokeColor=none;fillColor=#222222;fontColor=#ffffff;strokeWidth=0.1;fontSize=3;fontFamily=Teko Light;container=0;rotation=-180;" parent="kFSMSDOhSoSZf0vL2oAS-1" vertex="1">
          <mxGeometry x="348.2971428571429" y="30.227576744186052" width="12" height="5" as="geometry" />
        </mxCell>
        <mxCell id="dPUykWXNvH8D_2w4ptwh-220" value="" style="rounded=0;whiteSpace=wrap;html=1;strokeColor=none;fillColor=#000000;fontColor=#ffffff;strokeWidth=0.1;fontSize=3;fontFamily=Teko Light;container=0;rotation=-180;" parent="kFSMSDOhSoSZf0vL2oAS-1" vertex="1">
          <mxGeometry x="348.2971428571429" y="24.227576744186052" width="12" height="7" as="geometry" />
        </mxCell>
        <mxCell id="dPUykWXNvH8D_2w4ptwh-221" value="" style="rounded=0;whiteSpace=wrap;html=1;strokeColor=none;fillColor=#000000;fontColor=#ffffff;strokeWidth=0.1;fontSize=3;fontFamily=Teko Light;container=0;rotation=-180;" parent="kFSMSDOhSoSZf0vL2oAS-1" vertex="1">
          <mxGeometry x="351.7971428571429" y="30.227576744186052" width="5" height="4" as="geometry" />
        </mxCell>
        <mxCell id="dPUykWXNvH8D_2w4ptwh-222" value="" style="rounded=0;whiteSpace=wrap;html=1;strokeColor=none;fillColor=#60a917;fontColor=#ffffff;strokeWidth=0.1;fontSize=3;fontFamily=Teko Light;container=0;rotation=-180;" parent="kFSMSDOhSoSZf0vL2oAS-1" vertex="1">
          <mxGeometry x="357.2971428571429" y="32.22757674418605" width="3" height="2" as="geometry" />
        </mxCell>
        <mxCell id="dPUykWXNvH8D_2w4ptwh-223" value="" style="rounded=0;whiteSpace=wrap;html=1;strokeColor=none;fillColor=#e3c800;fontColor=#000000;strokeWidth=0.1;fontSize=3;fontFamily=Teko Light;container=0;rotation=-180;" parent="kFSMSDOhSoSZf0vL2oAS-1" vertex="1">
          <mxGeometry x="348.2971428571429" y="32.22757674418605" width="3" height="2" as="geometry" />
        </mxCell>
        <mxCell id="dPUykWXNvH8D_2w4ptwh-224" value="" style="rounded=0;whiteSpace=wrap;html=1;strokeColor=none;fillColor=#222222;fontColor=#ffffff;strokeWidth=0.1;fontSize=3;fontFamily=Teko Light;container=0;rotation=-180;" parent="kFSMSDOhSoSZf0vL2oAS-1" vertex="1">
          <mxGeometry x="361.3" y="30.22999999999999" width="12" height="5" as="geometry" />
        </mxCell>
        <mxCell id="dPUykWXNvH8D_2w4ptwh-225" value="" style="rounded=0;whiteSpace=wrap;html=1;strokeColor=none;fillColor=#000000;fontColor=#ffffff;strokeWidth=0.1;fontSize=3;fontFamily=Teko Light;container=0;rotation=-180;" parent="kFSMSDOhSoSZf0vL2oAS-1" vertex="1">
          <mxGeometry x="361.3" y="24.22999999999999" width="12" height="7" as="geometry" />
        </mxCell>
        <mxCell id="dPUykWXNvH8D_2w4ptwh-226" value="" style="rounded=0;whiteSpace=wrap;html=1;strokeColor=none;fillColor=#000000;fontColor=#ffffff;strokeWidth=0.1;fontSize=3;fontFamily=Teko Light;container=0;rotation=-180;" parent="kFSMSDOhSoSZf0vL2oAS-1" vertex="1">
          <mxGeometry x="364.8" y="30.22999999999999" width="5" height="4" as="geometry" />
        </mxCell>
        <mxCell id="dPUykWXNvH8D_2w4ptwh-227" value="" style="rounded=0;whiteSpace=wrap;html=1;strokeColor=none;fillColor=#60a917;fontColor=#ffffff;strokeWidth=0.1;fontSize=3;fontFamily=Teko Light;container=0;rotation=-180;" parent="kFSMSDOhSoSZf0vL2oAS-1" vertex="1">
          <mxGeometry x="370.3" y="32.22999999999999" width="3" height="2" as="geometry" />
        </mxCell>
        <mxCell id="dPUykWXNvH8D_2w4ptwh-228" value="" style="rounded=0;whiteSpace=wrap;html=1;strokeColor=none;fillColor=#e3c800;fontColor=#000000;strokeWidth=0.1;fontSize=3;fontFamily=Teko Light;container=0;rotation=-180;" parent="kFSMSDOhSoSZf0vL2oAS-1" vertex="1">
          <mxGeometry x="361.3" y="32.22999999999999" width="3" height="2" as="geometry" />
        </mxCell>
        <mxCell id="dPUykWXNvH8D_2w4ptwh-229" value="" style="rounded=0;whiteSpace=wrap;html=1;strokeColor=none;fillColor=#222222;fontColor=#ffffff;strokeWidth=0.1;fontSize=3;fontFamily=Teko Light;container=0;rotation=-180;" parent="kFSMSDOhSoSZf0vL2oAS-1" vertex="1">
          <mxGeometry x="387.3" y="30.22999999999999" width="12" height="5" as="geometry" />
        </mxCell>
        <mxCell id="dPUykWXNvH8D_2w4ptwh-230" value="" style="rounded=0;whiteSpace=wrap;html=1;strokeColor=none;fillColor=#000000;fontColor=#ffffff;strokeWidth=0.1;fontSize=3;fontFamily=Teko Light;container=0;rotation=-180;" parent="kFSMSDOhSoSZf0vL2oAS-1" vertex="1">
          <mxGeometry x="387.3" y="24.22999999999999" width="12" height="7" as="geometry" />
        </mxCell>
        <mxCell id="dPUykWXNvH8D_2w4ptwh-231" value="" style="rounded=0;whiteSpace=wrap;html=1;strokeColor=none;fillColor=#000000;fontColor=#ffffff;strokeWidth=0.1;fontSize=3;fontFamily=Teko Light;container=0;rotation=-180;" parent="kFSMSDOhSoSZf0vL2oAS-1" vertex="1">
          <mxGeometry x="390.8" y="30.22999999999999" width="5" height="4" as="geometry" />
        </mxCell>
        <mxCell id="dPUykWXNvH8D_2w4ptwh-232" value="" style="rounded=0;whiteSpace=wrap;html=1;strokeColor=none;fillColor=#60a917;fontColor=#ffffff;strokeWidth=0.1;fontSize=3;fontFamily=Teko Light;container=0;rotation=-180;" parent="kFSMSDOhSoSZf0vL2oAS-1" vertex="1">
          <mxGeometry x="396.3" y="32.22999999999999" width="3" height="2" as="geometry" />
        </mxCell>
        <mxCell id="dPUykWXNvH8D_2w4ptwh-233" value="" style="rounded=0;whiteSpace=wrap;html=1;strokeColor=none;fillColor=#e3c800;fontColor=#000000;strokeWidth=0.1;fontSize=3;fontFamily=Teko Light;container=0;rotation=-180;" parent="kFSMSDOhSoSZf0vL2oAS-1" vertex="1">
          <mxGeometry x="387.3" y="32.22999999999999" width="3" height="2" as="geometry" />
        </mxCell>
        <mxCell id="dPUykWXNvH8D_2w4ptwh-297" value="" style="rounded=0;whiteSpace=wrap;html=1;strokeColor=#000000;fillColor=#BFBFBF;fontColor=#ffffff;strokeWidth=0.1;container=0;align=center;verticalAlign=middle;fontFamily=Teko Light;fontSize=3;" parent="kFSMSDOhSoSZf0vL2oAS-1" vertex="1">
          <mxGeometry x="427.3" y="8.22999999999999" width="15" height="28" as="geometry" />
        </mxCell>
        <mxCell id="dPUykWXNvH8D_2w4ptwh-299" value="" style="rounded=0;whiteSpace=wrap;html=1;strokeColor=#AAAAAA;fillColor=#000000;fontColor=#ffffff;strokeWidth=0.1;container=0;" parent="kFSMSDOhSoSZf0vL2oAS-1" vertex="1">
          <mxGeometry x="427.8" y="25.72999999999999" width="14" height="10" as="geometry" />
        </mxCell>
        <mxCell id="dPUykWXNvH8D_2w4ptwh-300" value="" style="rounded=0;whiteSpace=wrap;html=1;strokeColor=#AAAAAA;fillColor=#000000;fontColor=#ffffff;strokeWidth=0.1;container=0;" parent="kFSMSDOhSoSZf0vL2oAS-1" vertex="1">
          <mxGeometry x="427.8" y="8.72999999999999" width="14" height="10" as="geometry" />
        </mxCell>
        <mxCell id="dPUykWXNvH8D_2w4ptwh-301" value="" style="rounded=0;whiteSpace=wrap;html=1;strokeColor=#111111;fillColor=#BFBFBF;fontColor=#ffffff;strokeWidth=0.1;container=0;" parent="kFSMSDOhSoSZf0vL2oAS-1" vertex="1">
          <mxGeometry x="432.3" y="25.22999999999999" width="5" height="1.2" as="geometry" />
        </mxCell>
        <mxCell id="dPUykWXNvH8D_2w4ptwh-302" value="" style="rounded=0;whiteSpace=wrap;html=1;strokeColor=#111111;fillColor=#BFBFBF;fontColor=#ffffff;strokeWidth=0.1;container=0;" parent="kFSMSDOhSoSZf0vL2oAS-1" vertex="1">
          <mxGeometry x="432.3" y="18.029999999999987" width="5" height="1.2" as="geometry" />
        </mxCell>
        <mxCell id="dPUykWXNvH8D_2w4ptwh-272" value="" style="triangle;whiteSpace=wrap;html=1;fillColor=#60a917;fontColor=#ffffff;strokeColor=none;rotation=90;container=0;" parent="kFSMSDOhSoSZf0vL2oAS-1" vertex="1">
          <mxGeometry x="437.43" y="20.72999999999999" width="3" height="3.000000000000001" as="geometry" />
        </mxCell>
        <mxCell id="dPUykWXNvH8D_2w4ptwh-273" value="" style="triangle;whiteSpace=wrap;html=1;fillColor=#60a917;fontColor=#ffffff;strokeColor=none;rotation=-90;container=0;" parent="kFSMSDOhSoSZf0vL2oAS-1" vertex="1">
          <mxGeometry x="428.8" y="20.72999999999999" width="3" height="3.000000000000001" as="geometry" />
        </mxCell>
        <mxCell id="dPUykWXNvH8D_2w4ptwh-314" value="" style="rounded=0;whiteSpace=wrap;html=1;strokeWidth=0.2;fillColor=none;container=0;" parent="kFSMSDOhSoSZf0vL2oAS-1" vertex="1">
          <mxGeometry x="409.3" y="9" width="6" height="3" as="geometry" />
        </mxCell>
        <mxCell id="dPUykWXNvH8D_2w4ptwh-315" value="" style="rounded=0;whiteSpace=wrap;html=1;strokeWidth=0.2;fillColor=none;strokeColor=default;container=0;" parent="kFSMSDOhSoSZf0vL2oAS-1" vertex="1">
          <mxGeometry x="411.3" y="8" width="2" height="1" as="geometry" />
        </mxCell>
        <mxCell id="dPUykWXNvH8D_2w4ptwh-316" value="" style="rounded=0;whiteSpace=wrap;html=1;strokeWidth=0.2;fillColor=#F0F0F0;container=0;" parent="kFSMSDOhSoSZf0vL2oAS-1" vertex="1">
          <mxGeometry x="413.3" y="9" width="2" height="1" as="geometry" />
        </mxCell>
        <mxCell id="hfAsptZxTh6_-12rJwsT-1" value="" style="endArrow=none;html=1;rounded=0;strokeWidth=0.5;" parent="kFSMSDOhSoSZf0vL2oAS-1" edge="1">
          <mxGeometry width="50" height="50" relative="1" as="geometry">
            <mxPoint x="286.3" y="11.700000000000003" as="sourcePoint" />
            <mxPoint x="289.3" y="11.700000000000003" as="targetPoint" />
          </mxGeometry>
        </mxCell>
        <mxCell id="hfAsptZxTh6_-12rJwsT-8" value="POE" style="text;html=1;align=center;verticalAlign=middle;whiteSpace=wrap;rounded=0;fontSize=2;container=0;" parent="kFSMSDOhSoSZf0vL2oAS-1" vertex="1">
          <mxGeometry x="278.45" y="12.230000000000004" width="5.7" height="2" as="geometry" />
        </mxCell>
        <mxCell id="hfAsptZxTh6_-12rJwsT-10" value="" style="rounded=0;whiteSpace=wrap;html=1;strokeWidth=0.2;fillColor=none;container=0;" parent="kFSMSDOhSoSZf0vL2oAS-1" vertex="1">
          <mxGeometry x="278.3" y="9" width="6" height="3" as="geometry" />
        </mxCell>
        <mxCell id="hfAsptZxTh6_-12rJwsT-11" value="" style="rounded=0;whiteSpace=wrap;html=1;strokeWidth=0.2;fillColor=none;strokeColor=default;container=0;" parent="kFSMSDOhSoSZf0vL2oAS-1" vertex="1">
          <mxGeometry x="280.3" y="8" width="2" height="1" as="geometry" />
        </mxCell>
        <mxCell id="hfAsptZxTh6_-12rJwsT-12" value="" style="rounded=0;whiteSpace=wrap;html=1;strokeWidth=0.2;fillColor=#F0F0F0;container=0;" parent="kFSMSDOhSoSZf0vL2oAS-1" vertex="1">
          <mxGeometry x="278.3" y="9" width="2" height="1" as="geometry" />
        </mxCell>
        <mxCell id="hfAsptZxTh6_-12rJwsT-5" value="OFF" style="text;html=1;align=left;verticalAlign=middle;whiteSpace=wrap;rounded=0;fontSize=2;container=0;" parent="kFSMSDOhSoSZf0vL2oAS-1" vertex="1">
          <mxGeometry x="282.3" y="18" width="14" height="2" as="geometry" />
        </mxCell>
        <mxCell id="hfAsptZxTh6_-12rJwsT-6" value="POE+" style="text;html=1;align=left;verticalAlign=middle;whiteSpace=wrap;rounded=0;fontSize=2;container=0;" parent="kFSMSDOhSoSZf0vL2oAS-1" vertex="1">
          <mxGeometry x="282.3" y="21" width="14" height="2" as="geometry" />
        </mxCell>
        <mxCell id="hfAsptZxTh6_-12rJwsT-7" value="24V" style="text;html=1;align=left;verticalAlign=middle;whiteSpace=wrap;rounded=0;fontSize=2;container=0;" parent="kFSMSDOhSoSZf0vL2oAS-1" vertex="1">
          <mxGeometry x="282.3" y="24" width="14" height="2" as="geometry" />
        </mxCell>
        <mxCell id="hfAsptZxTh6_-12rJwsT-2" value="" style="rounded=0;whiteSpace=wrap;html=1;strokeWidth=0.2;fillColor=none;container=0;" parent="kFSMSDOhSoSZf0vL2oAS-1" vertex="1">
          <mxGeometry x="278.3" y="18" width="4" height="2" as="geometry" />
        </mxCell>
        <mxCell id="hfAsptZxTh6_-12rJwsT-3" value="" style="rounded=0;whiteSpace=wrap;html=1;strokeWidth=0.2;fillColor=#E3C800;container=0;" parent="kFSMSDOhSoSZf0vL2oAS-1" vertex="1">
          <mxGeometry x="278.3" y="21" width="4" height="2" as="geometry" />
        </mxCell>
        <mxCell id="hfAsptZxTh6_-12rJwsT-4" value="" style="rounded=0;whiteSpace=wrap;html=1;strokeWidth=0.2;fillColor=#60A917;container=0;" parent="kFSMSDOhSoSZf0vL2oAS-1" vertex="1">
          <mxGeometry x="278.3" y="24" width="4" height="2" as="geometry" />
        </mxCell>
      </root>
    </mxGraphModel>
  </diagram>
</mxfile>
